<svg width="60" height="60" viewBox="0 0 60 60" fill="none" xmlns="http://www.w3.org/2000/svg">
<path d="M57.953 19.9663L30.9808 0.226256C30.7799 0.0792462 30.5375 0 30.2886 0C30.0397 0 29.7973 0.0792462 29.5964 0.226256L2.62431 19.9663C2.10213 20.3485 1.98857 21.0818 2.37084 21.6041L5.89619 26.4211C5.98704 26.5453 6.10149 26.6504 6.23299 26.7304C6.36449 26.8104 6.51046 26.8637 6.66257 26.8872C6.81467 26.9107 6.96992 26.9041 7.11945 26.8676C7.26897 26.8311 7.40984 26.7655 7.534 26.6745L8.59783 25.8959V58.828C8.59783 59.4751 9.12259 59.9998 9.7697 59.9998H50.8695C51.5166 59.9998 52.0413 59.4751 52.0413 58.828V25.9413L53.0433 26.6745C53.1675 26.7655 53.3083 26.831 53.4578 26.8675C53.6073 26.904 53.7626 26.9106 53.9147 26.8871C54.0667 26.8636 54.2127 26.8103 54.3442 26.7303C54.4757 26.6504 54.5901 26.5453 54.681 26.4211L58.2063 21.6041C58.5887 21.0816 58.4752 20.3485 57.953 19.9663ZM49.6976 53.0856H21.972C21.3249 53.0856 20.8001 53.6103 20.8001 54.2574C20.8001 54.9045 21.3249 55.4293 21.972 55.4293H49.6976V57.6562H10.9415V25.105H38.3847C39.0318 25.105 39.5565 24.5803 39.5565 23.9332C39.5565 23.2861 39.0318 22.7613 38.3847 22.7613H12.8816L30.2886 10.0213L49.6976 24.226V53.0856ZM53.4818 24.0911L30.9808 7.62348C30.78 7.47638 30.5375 7.39712 30.2886 7.39719C30.0397 7.39709 29.7973 7.47636 29.5965 7.62348L7.09537 24.0911L4.95424 21.1654L30.2888 2.62391L55.6233 21.1654L53.4818 24.0911Z" fill="#F1CDB3"/>
<path d="M43.7559 23.7046C43.7406 23.6295 43.7172 23.5557 43.6879 23.4842C43.6586 23.4139 43.6223 23.3459 43.5801 23.2826C43.5379 23.2184 43.4892 23.1587 43.4348 23.1045C43.2145 22.8855 42.9168 22.7621 42.6062 22.761C42.298 22.761 41.9957 22.8864 41.7778 23.1045C41.7239 23.1584 41.6747 23.2182 41.6325 23.2826C41.5904 23.3459 41.554 23.4139 41.5247 23.4842C41.4954 23.5557 41.472 23.6295 41.4579 23.7046C41.4427 23.7796 41.4345 23.8569 41.4345 23.933C41.4345 24.0092 41.4427 24.0866 41.4579 24.1615C41.472 24.2364 41.4954 24.3103 41.5247 24.3818C41.554 24.4523 41.5904 24.5202 41.6325 24.5835C41.6747 24.648 41.7239 24.7076 41.7778 24.7616C41.8318 24.8155 41.8915 24.8648 41.956 24.9069C42.0193 24.949 42.0872 24.9855 42.1587 25.0148C42.229 25.0441 42.3027 25.0675 42.3778 25.0816C42.4529 25.0968 42.5302 25.1049 42.6062 25.1049C42.6824 25.1049 42.7599 25.0968 42.8348 25.0816C42.9099 25.067 42.9834 25.0446 43.0539 25.0148C43.1254 24.9855 43.1934 24.949 43.2566 24.9069C43.3211 24.8648 43.3807 24.8155 43.4348 24.7616C43.4887 24.7077 43.5379 24.648 43.5801 24.5835C43.6223 24.5202 43.6586 24.4523 43.6879 24.3818C43.7172 24.3105 43.7406 24.2365 43.7559 24.1615C43.7711 24.0865 43.778 24.0092 43.778 23.933C43.778 23.8569 43.771 23.7795 43.7559 23.7046Z" fill="#F1CDB3"/>
<path d="M18.8989 54.0281C18.8839 53.9531 18.8616 53.8797 18.8323 53.809C18.803 53.7386 18.7665 53.6695 18.7243 53.6063C18.6819 53.5423 18.6333 53.4826 18.5791 53.4281C18.5252 53.3742 18.4653 53.3262 18.401 53.2828C18.273 53.1978 18.1297 53.1385 17.9791 53.1082C17.8279 53.0777 17.6721 53.0777 17.5209 53.1082C17.4471 53.1234 17.3733 53.1457 17.3018 53.175C17.2315 53.2043 17.1635 53.2406 17.1002 53.2828C17.0358 53.325 16.9759 53.3742 16.9221 53.4281C16.867 53.482 16.819 53.543 16.7756 53.6063C16.6906 53.7342 16.6314 53.8775 16.6011 54.0281C16.5858 54.1043 16.5789 54.1805 16.5789 54.2566C16.5783 54.4106 16.6086 54.5632 16.6678 54.7054C16.6971 54.7758 16.7335 54.8438 16.7756 54.9081C16.819 54.9714 16.867 55.0312 16.9221 55.0862C16.976 55.1403 17.0359 55.1895 17.1002 55.2315C17.1635 55.2737 17.2315 55.3101 17.3018 55.3394C17.3733 55.3686 17.4471 55.3909 17.5209 55.4061C17.5971 55.4214 17.6744 55.4296 17.7506 55.4296C17.9821 55.4286 18.2083 55.3598 18.401 55.2315C18.4653 55.1894 18.525 55.1407 18.5791 55.0862C18.633 55.0312 18.6823 54.9715 18.7243 54.9081C18.8528 54.7151 18.9217 54.4885 18.9224 54.2566C18.9224 54.1805 18.9142 54.1042 18.8989 54.0281Z" fill="#F1CDB3"/>
<path d="M44.8451 30.5741C44.8451 29.5803 44.4553 28.6476 43.7475 27.9481C43.0465 27.2554 42.0879 26.8676 41.1105 26.876C40.8023 26.8793 40.4957 26.9208 40.1978 26.9997C38.0278 27.5554 35.9076 28.2902 33.859 29.1966C32.6891 28.9199 31.491 28.7806 30.2888 28.7813C29.6118 28.7813 28.9288 28.8257 28.2584 28.9133C27.7407 28.9816 27.2268 29.0761 26.7187 29.1966C24.6705 28.2903 22.5506 27.5556 20.3809 26.9999C20.3705 26.997 20.36 26.9942 20.3495 26.9915C19.1962 26.6978 18.0067 26.9619 17.0863 27.7171C16.1662 28.472 15.6748 29.5867 15.738 30.7745C15.8025 31.9938 15.9224 33.2096 16.0974 34.418C16.2545 35.5012 16.4553 36.5776 16.6991 37.6446C16.3363 38.5729 16.0835 39.5405 15.946 40.5276C15.8887 40.9397 15.8599 41.3553 15.8595 41.7714C15.8595 47.0173 20.434 51.2853 26.0571 51.2853H34.5208C37.6029 51.2853 40.4864 50.0035 42.4321 47.7686C44.2151 45.7205 44.9963 43.1486 44.6317 40.5269C44.5533 39.9648 44.4376 39.4085 44.2855 38.8617C44.1703 38.4498 44.0346 38.0438 43.8791 37.6453C44.395 35.3878 44.7163 33.0901 44.8397 30.7777C44.8434 30.7091 44.8451 30.6416 44.8451 30.5741ZM42.4991 30.647L42.4989 30.651C42.3765 32.949 42.0464 35.2312 41.5128 37.4697C41.4547 37.7133 41.4762 37.9692 41.5741 38.1997C41.7527 38.6199 41.904 39.0511 42.0272 39.4907C42.1513 39.937 42.2457 40.391 42.3098 40.8497C42.5795 42.7897 41.995 44.7004 40.6637 46.2296C39.1634 47.9529 36.9243 48.9414 34.5202 48.9414H26.0566C21.726 48.9414 18.2027 45.7249 18.2027 41.7714C18.2027 41.4679 18.2243 41.1574 18.2669 40.8496C18.3942 39.938 18.6417 39.0473 19.0027 38.2007C19.101 37.9699 19.1226 37.7138 19.0645 37.4698C18.7977 36.3508 18.5815 35.2203 18.4163 34.0819C18.2515 32.9439 18.1386 31.799 18.0778 30.6508C18.0546 30.2148 18.2349 29.806 18.5725 29.5289C18.8198 29.326 19.1202 29.2196 19.4295 29.2196C19.5348 29.2196 19.6414 29.2319 19.7472 29.2571L19.7705 29.2633C21.9498 29.8194 24.0756 30.5674 26.1229 31.4985C26.3701 31.6112 26.6489 31.6346 26.9114 31.5646C27.4541 31.4199 28.0056 31.3106 28.5624 31.2372C29.1316 31.1628 29.7123 31.125 30.2881 31.125C31.4358 31.125 32.5717 31.2729 33.6646 31.5646C33.9269 31.6342 34.2053 31.6114 34.4523 31.499C36.507 30.5646 38.6405 29.8145 40.8278 29.2573C40.9279 29.2333 41.0304 29.2207 41.1333 29.2196H41.1486C41.4988 29.2196 41.8448 29.3632 42.0995 29.6149C42.227 29.74 42.3282 29.8892 42.3971 30.0539C42.466 30.2186 42.5013 30.3955 42.5009 30.574C42.501 30.5983 42.5004 30.6224 42.4991 30.647Z" fill="#F1CDB3"/>
<path d="M32.4865 43.5662C31.9209 43.5662 31.4605 43.1059 31.4605 42.5403C31.4605 41.8932 30.9359 41.3684 30.2887 41.3684C29.6414 41.3684 29.1168 41.8932 29.1168 42.5403V42.5831C29.1168 43.1487 28.6566 43.609 28.0909 43.609C27.4437 43.609 26.9191 44.1338 26.9191 44.7809C26.9191 45.428 27.4437 45.9528 28.0909 45.9528C28.9417 45.9528 29.7196 45.6356 30.3133 45.1135C30.9203 45.6284 31.6906 45.9107 32.4865 45.9099C33.1336 45.9099 33.6584 45.3851 33.6584 44.738C33.6584 44.0908 33.1336 43.5662 32.4865 43.5662Z" fill="#F1CDB3"/>
<path d="M26.1923 38.1664L24.4516 37.3688C24.2985 37.2985 24.132 37.2621 23.9635 37.2621C23.795 37.2621 23.6285 37.2985 23.4754 37.3688L21.7346 38.1664C21.1462 38.4359 20.8877 39.1314 21.1573 39.7198C21.2214 39.8597 21.3124 39.9856 21.4252 40.0904C21.5379 40.1951 21.6702 40.2766 21.8145 40.3302C21.9587 40.3838 22.1121 40.4085 22.2659 40.4028C22.4197 40.3971 22.5709 40.3612 22.7108 40.2971L23.9634 39.7232L25.216 40.2971C25.804 40.5669 26.4999 40.3082 26.7694 39.7198C27.0392 39.1314 26.7806 38.4358 26.1923 38.1664Z" fill="#F1CDB3"/>
<path d="M38.8427 38.1662L37.102 37.3686C36.9489 37.2983 36.7824 37.262 36.6139 37.262C36.4454 37.262 36.2789 37.2983 36.1258 37.3686L34.3851 38.1662C33.7967 38.4357 33.5382 39.1312 33.8078 39.7196C34.0775 40.3083 34.773 40.5669 35.3613 40.2969L36.6139 39.723L37.8665 40.2969C38.0194 40.3672 38.1856 40.4036 38.3539 40.4036C38.798 40.4036 39.2228 40.1498 39.42 39.7196C39.6896 39.1312 39.4312 38.4357 38.8427 38.1662Z" fill="#F1CDB3"/>
</svg>
