<svg width="60" height="60" viewBox="0 0 60 60" fill="none" xmlns="http://www.w3.org/2000/svg">
<path d="M52.8986 25.4978L47.1437 9.7473V1.42852C47.1437 0.639609 46.5039 0 45.7152 0H14.2866C13.4977 0 12.8581 0.639727 12.8581 1.42852V9.74719L7.10293 25.4978C6.42007 27.3636 6.07118 29.335 6.07227 31.3219V55.0765C6.07227 57.7913 8.2809 60 10.9958 60H49.0058C51.7207 60 53.9293 57.7913 53.9293 55.0765V31.3219C53.9293 29.329 53.5825 27.3694 52.8986 25.4978ZM15.715 2.85715H44.2865V8.57145H15.715V2.85715ZM51.0723 50.1321H30.9085C30.1196 50.1321 29.48 50.7718 29.48 51.5606C29.48 52.3495 30.1197 52.9891 30.9085 52.9891H51.0723V55.0763C51.0723 56.2157 50.1453 57.1427 49.0058 57.1427H10.9958C9.85637 57.1427 8.92942 56.2158 8.92942 55.0763V31.3219C8.92853 29.6695 9.21867 28.03 9.78653 26.4783L15.2855 11.4286H44.716L50.215 26.4783C50.7829 28.03 51.073 29.6695 51.0722 31.3219L51.0723 50.1321Z" fill="#F1CDB3"/>
<path d="M35.6177 33.805C35.1513 30.8772 32.6086 28.632 29.5513 28.632C26.494 28.632 23.9512 30.8772 23.4848 33.805C21.0678 34.7989 19.4865 37.2756 19.6906 39.9659C19.9183 42.9637 22.3514 45.392 25.3497 45.6148C26.5079 45.7011 27.658 45.4628 28.6759 44.9259C29.2323 44.6328 29.8705 44.6326 30.4264 44.926C31.3093 45.3908 32.2922 45.6331 33.2899 45.632C33.4437 45.632 33.5982 45.6263 33.7524 45.6149C36.751 45.3923 39.184 42.9638 39.4118 39.966C39.616 37.2756 38.0347 34.7989 35.6177 33.805ZM36.5628 39.7495C36.4413 41.35 35.1423 42.6466 33.541 42.7655C32.9184 42.8126 32.3021 42.6851 31.7594 42.3986C31.0789 42.0394 30.3209 41.8517 29.5514 41.8517C28.7818 41.8517 28.0239 42.0394 27.3433 42.3986C26.8006 42.6849 26.1856 42.8123 25.5616 42.7655C23.9605 42.6467 22.6613 41.3501 22.5399 39.7495C22.4151 38.1062 23.5304 36.6124 25.1339 36.2746C25.4596 36.206 25.7511 36.0259 25.9581 35.7653C26.1651 35.5047 26.2747 35.18 26.2679 34.8473L26.2656 34.775C26.2656 32.9632 27.7394 31.4893 29.5513 31.4893C31.3631 31.4893 32.837 32.9632 32.837 34.7698L32.8347 34.8473C32.8278 35.1801 32.9374 35.5048 33.1444 35.7654C33.3515 36.026 33.643 36.2061 33.9688 36.2746C35.5725 36.6124 36.6876 38.1062 36.5628 39.7495Z" fill="#F1CDB3"/>
<path d="M29.5514 25.7751C32.1116 25.7751 34.1942 23.6924 34.1942 21.1322C34.1942 18.572 32.1116 16.4893 29.5514 16.4893C26.9912 16.4893 24.9085 18.5721 24.9085 21.1322C24.9085 23.6923 26.9914 25.7751 29.5514 25.7751ZM29.5514 19.3465C30.5361 19.3465 31.3371 20.1475 31.3371 21.1322C31.3371 22.1169 30.5361 22.9179 29.5514 22.9179C28.5667 22.9179 27.7657 22.1169 27.7657 21.1322C27.7657 20.1475 28.5668 19.3465 29.5514 19.3465Z" fill="#F1CDB3"/>
<path d="M24.1943 26.6561C24.1943 24.0959 22.1115 22.0132 19.5514 22.0132C16.9913 22.0132 14.9086 24.096 14.9086 26.6561C14.9086 29.2162 16.9912 31.2989 19.5514 31.2989C22.1116 31.2989 24.1943 29.2162 24.1943 26.6561ZM19.5514 28.4418C18.5667 28.4418 17.7657 27.6408 17.7657 26.6561C17.7657 25.6714 18.5667 24.8704 19.5514 24.8704C20.5361 24.8704 21.3371 25.6714 21.3371 26.6561C21.3371 27.6408 20.536 28.4418 19.5514 28.4418Z" fill="#F1CDB3"/>
<path d="M39.5513 22.0131C36.9912 22.0131 34.9085 24.0959 34.9085 26.656C34.9085 29.216 36.9914 31.2988 39.5513 31.2988C42.1115 31.2988 44.1942 29.2162 44.1942 26.656C44.1942 24.0958 42.1115 22.0131 39.5513 22.0131ZM39.5513 28.4418C38.5666 28.4418 37.7656 27.6408 37.7656 26.6561C37.7656 25.6714 38.5667 24.8704 39.5513 24.8704C40.5361 24.8704 41.337 25.6714 41.337 26.6561C41.337 27.6408 40.5361 28.4418 39.5513 28.4418Z" fill="#F1CDB3"/>
<path d="M24.6942 50.1322H24.3473C23.5584 50.1322 22.9188 50.7719 22.9188 51.5607C22.9188 52.3496 23.5585 52.9892 24.3473 52.9892H24.6942C25.4831 52.9892 26.1227 52.3495 26.1227 51.5607C26.1228 50.7719 25.4832 50.1322 24.6942 50.1322Z" fill="#F1CDB3"/>
</svg>
